<?xml version="1.0" encoding="UTF-8"?>
<svg width="200px" height="50px" viewBox="0 0 200 50" version="1.1" xmlns="http://www.w3.org/2000/svg" xmlns:xlink="http://www.w3.org/1999/xlink">
    <title>AgricarbonX Logo</title>
    <g id="Logo" stroke="none" stroke-width="1" fill="none" fill-rule="evenodd">
        <g id="AgricarbonX-Logo">
            <path d="M20,10 C31.0457,10 40,18.9543 40,30 C40,41.0457 31.0457,50 20,50 C8.9543,50 0,41.0457 0,30 C0,18.9543 8.9543,10 20,10 Z" id="Circle" fill="#2E7D32"></path>
            <path d="M20,15 C28.2843,15 35,21.7157 35,30 C35,38.2843 28.2843,45 20,45 C11.7157,45 5,38.2843 5,30 C5,21.7157 11.7157,15 20,15 Z" id="Inner-Circle" fill="#60AD5E"></path>
            <path d="M20,20 C25.5228,20 30,24.4772 30,30 C30,35.5228 25.5228,40 20,40 C14.4772,40 10,35.5228 10,30 C10,24.4772 14.4772,20 20,20 Z" id="Core" fill="#FFFFFF"></path>
            <path d="M20,25 C22.7614,25 25,27.2386 25,30 C25,32.7614 22.7614,35 20,35 C17.2386,35 15,32.7614 15,30 C15,27.2386 17.2386,25 20,25 Z" id="Seed" fill="#1E5631"></path>
            <path d="M50,35 L53,25 L57,25 L60,35 L57,35 L56.5,33 L53.5,33 L53,35 L50,35 Z M54,31 L56,31 L55,27 L54,31 Z" id="A" fill="#1E5631"></path>
            <path d="M62,35 L62,25 L65,25 C67,25 69,26 69,28 C69,29.5 68,30.5 67,31 L70,35 L67,35 L64.5,31.5 L65,31.5 C66,31.5 66.5,31 66.5,30 C66.5,29 66,28.5 65,28.5 L64.5,28.5 L64.5,35 L62,35 Z" id="g" fill="#1E5631"></path>
            <path d="M71,35 L71,25 L73.5,25 L73.5,32.5 L77,32.5 L77,35 L71,35 Z" id="r" fill="#1E5631"></path>
            <path d="M78,35 L78,25 L80.5,25 L80.5,35 L78,35 Z" id="i" fill="#1E5631"></path>
            <path d="M87,35 L87,30 C87,28 86,27.5 85,27.5 C84,27.5 83,28 83,30 L83,35 L80.5,35 L80.5,25 L83,25 L83,26 C83.5,25.5 84.5,25 85.5,25 C87.5,25 89.5,26 89.5,29 L89.5,35 L87,35 Z" id="c" fill="#1E5631"></path>
            <path d="M96,35 L96,34 C95.5,34.5 94.5,35 93.5,35 C91.5,35 90,34 90,32 C90,30 91.5,29 93.5,29 C94.5,29 95.5,29.5 96,30 L96,29 C96,28 95.5,27.5 94.5,27.5 C93.5,27.5 93,28 93,28.5 L90.5,28.5 C90.5,26.5 92.5,25 94.5,25 C96.5,25 98.5,26 98.5,29 L98.5,35 L96,35 Z M96,32 C96,31 95,30.5 94,30.5 C93,30.5 92.5,31 92.5,32 C92.5,33 93,33.5 94,33.5 C95,33.5 96,33 96,32 Z" id="a" fill="#1E5631"></path>
            <path d="M99,35 L99,25 L101.5,25 L101.5,32.5 L105,32.5 L105,35 L99,35 Z" id="r" fill="#1E5631"></path>
            <path d="M106,30 C106,27 108,25 110.5,25 C113,25 115,27 115,30 C115,33 113,35 110.5,35 C108,35 106,33 106,30 Z M112.5,30 C112.5,28.5 111.5,27.5 110.5,27.5 C109.5,27.5 108.5,28.5 108.5,30 C108.5,31.5 109.5,32.5 110.5,32.5 C111.5,32.5 112.5,31.5 112.5,30 Z" id="b" fill="#1E5631"></path>
            <path d="M121,35 L121,30 C121,28 120,27.5 119,27.5 C118,27.5 117,28 117,30 L117,35 L114.5,35 L114.5,25 L117,25 L117,26 C117.5,25.5 118.5,25 119.5,25 C121.5,25 123.5,26 123.5,29 L123.5,35 L121,35 Z" id="o" fill="#1E5631"></path>
            <path d="M124,35 L124,25 L126.5,25 L126.5,35 L124,35 Z" id="n" fill="#1E5631"></path>
            <path d="M133,35 L133,30 C133,28 132,27.5 131,27.5 C130,27.5 129,28 129,30 L129,35 L126.5,35 L126.5,21 L129,21 L129,26 C129.5,25.5 130.5,25 131.5,25 C133.5,25 135.5,26 135.5,29 L135.5,35 L133,35 Z" id="X" fill="#1E5631"></path>
        </g>
    </g>
</svg>
