<?xml version="1.0" encoding="UTF-8"?>
<svg width="50px" height="50px" viewBox="0 0 50 50" version="1.1" xmlns="http://www.w3.org/2000/svg" xmlns:xlink="http://www.w3.org/1999/xlink">
    <title>Agroforestry Icon</title>
    <g id="Icons" stroke="none" stroke-width="1" fill="none" fill-rule="evenodd">
        <g id="Agroforestry-Icon">
            <circle id="Background" fill="#E8F5E9" cx="25" cy="25" r="25"></circle>
            <rect id="Soil" fill="#5D4037" x="5" y="40" width="40" height="5" rx="2"></rect>
            
            <!-- Tree 1 -->
            <rect id="Tree-1-Trunk" fill="#8D6E63" x="15" y="25" width="4" height="15"></rect>
            <path d="M17,10 L10,25 L24,25 Z" id="Tree-1-Top" fill="#2E7D32"></path>
            
            <!-- Tree 2 -->
            <rect id="Tree-2-Trunk" fill="#8D6E63" x="35" y="20" width="4" height="20"></rect>
            <circle id="Tree-2-Top" fill="#2E7D32" cx="37" cy="15" r="8"></circle>
            
            <!-- Crops -->
            <g id="Crops" transform="translate(5, 40)">
                <line id="Crop-1-Stem" stroke="#8BC34A" stroke-width="1.5" x1="5" y1="0" x2="5" y2="-8"></line>
                <circle id="Crop-1-Top" fill="#8BC34A" cx="5" cy="-8" r="2"></circle>
                
                <line id="Crop-2-Stem" stroke="#8BC34A" stroke-width="1.5" x1="10" y1="0" x2="10" y2="-6"></line>
                <circle id="Crop-2-Top" fill="#8BC34A" cx="10" cy="-6" r="2"></circle>
                
                <line id="Crop-3-Stem" stroke="#8BC34A" stroke-width="1.5" x1="25" y1="0" x2="25" y2="-8"></line>
                <circle id="Crop-3-Top" fill="#8BC34A" cx="25" cy="-8" r="2"></circle>
                
                <line id="Crop-4-Stem" stroke="#8BC34A" stroke-width="1.5" x1="30" y1="0" x2="30" y2="-6"></line>
                <circle id="Crop-4-Top" fill="#8BC34A" cx="30" cy="-6" r="2"></circle>
                
                <line id="Crop-5-Stem" stroke="#8BC34A" stroke-width="1.5" x1="40" y1="0" x2="40" y2="-8"></line>
                <circle id="Crop-5-Top" fill="#8BC34A" cx="40" cy="-8" r="2"></circle>
            </g>
            
            <!-- Animals -->
            <circle id="Animal-1" fill="#795548" cx="20" cy="35" r="2"></circle>
            <circle id="Animal-2" fill="#795548" cx="25" cy="33" r="2"></circle>
            <circle id="Animal-3" fill="#795548" cx="30" cy="35" r="2"></circle>
        </g>
    </g>
</svg>
