<?xml version="1.0" encoding="UTF-8"?>
<svg width="50px" height="50px" viewBox="0 0 50 50" version="1.1" xmlns="http://www.w3.org/2000/svg" xmlns:xlink="http://www.w3.org/1999/xlink">
    <title>Water Management Icon</title>
    <g id="Icons" stroke="none" stroke-width="1" fill="none" fill-rule="evenodd">
        <g id="Water-Icon">
            <circle id="Background" fill="#E8F5E9" cx="25" cy="25" r="25"></circle>
            <rect id="Soil" fill="#5D4037" x="5" y="35" width="40" height="10" rx="2"></rect>
            
            <!-- Plants -->
            <line id="Plant-1-Stem" stroke="#1E5631" stroke-width="2" x1="15" y1="35" x2="15" y2="20"></line>
            <circle id="Plant-1-Leaf" fill="#4CAF50" cx="15" cy="20" r="3"></circle>
            
            <line id="Plant-2-Stem" stroke="#1E5631" stroke-width="2" x1="35" y1="35" x2="35" y2="20"></line>
            <circle id="Plant-2-Leaf" fill="#4CAF50" cx="35" cy="20" r="3"></circle>
            
            <!-- Water Drops -->
            <path d="M15,25 C15,25 13,28 15,30 C17,28 15,25 15,25 Z" id="Drop-1" fill="#2196F3"></path>
            <path d="M35,25 C35,25 33,28 35,30 C37,28 35,25 35,25 Z" id="Drop-2" fill="#2196F3"></path>
            
            <!-- Irrigation System -->
            <line id="Pipe-Main" stroke="#607D8B" stroke-width="2" x1="5" y1="15" x2="45" y2="15"></line>
            <line id="Pipe-1" stroke="#607D8B" stroke-width="1.5" x1="15" y1="15" x2="15" y2="20"></line>
            <line id="Pipe-2" stroke="#607D8B" stroke-width="1.5" x1="35" y1="15" x2="35" y2="20"></line>
            <circle id="Valve" fill="#607D8B" cx="25" cy="15" r="3"></circle>
            
            <!-- Water Conservation Symbol -->
            <circle id="Water-Circle" stroke="#2196F3" stroke-width="1.5" fill="#FFFFFF" opacity="0.8" cx="25" cy="8" r="5"></circle>
            <path d="M25,5 C25,5 23,7 25,9 C27,7 25,5 25,5 Z" id="Water-Symbol" fill="#2196F3"></path>
            <path d="M22,8 L28,8" id="Water-Line" stroke="#2196F3" stroke-width="1"></path>
        </g>
    </g>
</svg>
